<?xml version="1.0" encoding="iso-8859-1"?>
<!-- Generator: Adobe Illustrator 19.0.0, SVG Export Plug-In . SVG Version: 6.00 Build 0)  -->
<svg version="1.1" id="Capa_1" xmlns="http://www.w3.org/2000/svg" xmlns:xlink="http://www.w3.org/1999/xlink" x="0px" y="0px"
	 viewBox="0 0 496 496" style="enable-background:new 0 0 496 496;" xml:space="preserve">
<path style="fill:#FFA64D;" d="M272,432h216V256H288v112c0,8.84-7.16,16-16,16l0,0V432z"/>
<g>
	<path style="fill:#333333;" d="M469.68,179.12C446.088,164.368,432,138.952,432,111.136V64c13.232,0,24-10.768,24-24V24
		c0-13.232-10.768-24-24-24H320c-13.232,0-24,10.768-24,24v16c0,13.232,10.768,24,24,24v47.136c0,27.816-14.088,53.232-37.68,67.984
		c-4.344,2.72-8.24,6.056-11.656,9.816C265.648,167.792,246.656,152,224,152c-16.688,0-31.392,8.568-40,21.52
		c-8.608-12.96-23.312-21.52-40-21.52c-26.472,0-48,21.528-48,48v6.496C81.68,214.808,72,230.28,72,248v24H40
		c-22.056,0-40,17.944-40,40v88c0,22.056,17.944,40,40,40h32v16c0,22.056,17.944,40,40,40h128c10.896,0,20.76-4.4,27.976-11.488
		c7.4,7.24,17.44,11.488,28.024,11.488h160c22.056,0,40-17.944,40-40V226.6C496,207.168,486.152,189.416,469.68,179.12z M312,40V24
		c0-4.416,3.584-8,8-8h112c4.416,0,8,3.584,8,8v16c0,4.416-3.584,8-8,8h-16V32h-16v16h-16V32h-16v16h-16V32h-16v16h-16
		C315.584,48,312,44.416,312,40z M120,216c17.648,0,32,14.352,32,32h16c0-26.472-21.528-48-48-48c-2.728,0-5.392,0.28-8,0.72V200
		c0-17.648,14.352-32,32-32s32,14.352,32,32h16c0-17.648,14.352-32,32-32s32,14.352,32,32v0.72c-2.608-0.44-5.272-0.72-8-0.72
		c-26.472,0-48,21.528-48,48h16c0-17.648,14.352-32,32-32s32,14.352,32,32v120c0,4.416-3.584,8-8,8s-8-3.584-8-8v-24h-16
		c0,8.816-7.184,16-16,16s-16-7.184-16-16v-80H88v-16C88,230.352,102.352,216,120,216z M40,424c-13.232,0-24-10.768-24-24v-88
		c0-13.232,10.768-24,24-24h32v16H48c-8.816,0-16,7.176-16,16v72c0,8.816,7.184,16,16,16h24v16H40z M72,320v72H48v-72H72z M240,480
		H112c-13.232,0-24-10.768-24-24V280h24v160h16V280h40v152h16V280h16v64c0,14.872,10.232,27.288,24,30.864V440h16v-65.048
		c2.936-0.76,5.72-1.896,8.264-3.4c1.32,8.856,7.512,16.104,15.736,19.024V456C264,469.232,253.232,480,240,480z M480,456
		c0,13.232-10.768,24-24,24H296c-7.456,0-14.32-3.648-18.832-9.456c1.776-4.52,2.832-9.4,2.832-14.544v-65.472
		c9.288-3.312,16-12.112,16-22.528V248c0-15.96-7.856-30.08-19.872-38.816c3.272-6.704,8.304-12.52,14.68-16.504
		C319.104,174.992,336,144.504,336,111.136V64h80v47.136c0,33.376,16.896,63.856,45.192,81.544C472.968,200.04,480,212.72,480,226.6
		V456z"/>
	<rect x="168" y="448" style="fill:#333333;" width="16" height="16"/>
	<path style="fill:#333333;" d="M376,280c-35.288,0-64,28.712-64,64s28.712,64,64,64s64-28.712,64-64S411.288,280,376,280z M376,392
		c-26.472,0-48-21.528-48-48s21.528-48,48-48s48,21.528,48,48S402.472,392,376,392z"/>
</g>
<g>
</g>
<g>
</g>
<g>
</g>
<g>
</g>
<g>
</g>
<g>
</g>
<g>
</g>
<g>
</g>
<g>
</g>
<g>
</g>
<g>
</g>
<g>
</g>
<g>
</g>
<g>
</g>
<g>
</g>
</svg>
